<svg width="430" height="932" viewBox="0 0 430 932" fill="none" xmlns="http://www.w3.org/2000/svg">
<rect y="-60" width="430" height="992" fill="url(#paint0_linear_213_67)"/>
<path d="M430 817.622C428.502 817.622 430 827.789 406.028 837.956C382.056 848.123 356.086 887.266 384.553 932L352.59 932C346.098 910.988 341.203 855.85 373.566 803.388C414.019 737.812 430 733.745 430 722.053M430 683.419C426.338 699.686 409.923 731.203 373.566 727.137C337.208 723.07 320.794 757.298 317.131 774.921C312.969 816.267 296.655 902.008 252.706 932M159.814 932C152.656 927.764 135.243 906.989 122.857 857.781C107.375 796.272 33.9605 800.338 32.4622 932M6.03217e-06 863C5.32715 828.941 75.9117 747.674 133.844 821.689C206.26 914.208 213.717 948.267 252.706 913.7C291.695 879.132 307.143 798.305 271.185 786.613C235.227 774.921 220.743 859.307 179.292 831.347C137.84 803.388 95.3891 691.044 9.6437e-06 821.689M430 597C427.336 624.112 410.023 680.369 362.079 688.502C302.149 698.669 261.696 666.89 231.731 751.537C201.765 836.184 164.309 792.713 150.825 767.296C137.34 741.879 101.882 721.545 58.4321 756.621C23.6725 784.681 4.99421 745.268 1.83541e-05 722.053" stroke="#0D0D0D"/>
<defs>
<linearGradient id="paint0_linear_213_67" x1="-5.80365e-06" y1="925" x2="430" y2="-48.5" gradientUnits="userSpaceOnUse">
<stop stop-color="#1E1D1D"/>
<stop offset="0.944625" stop-color="#454545"/>
</linearGradient>
</defs>
</svg>
