<svg width="111" height="49" viewBox="0 0 111 49" fill="none" xmlns="http://www.w3.org/2000/svg">
<g id="Asset 1 1" clip-path="url(#clip0_43_520)">
<g id="Layer 1">
<g id="Group">
<path id="Vector" d="M96.6689 33.2266C97.5717 33.4016 98.427 33.7029 99.2661 34.1316C97.9507 35.9711 97.5532 38.0676 97.3283 40.2437H96.4695C96.4417 40.1902 96.4 40.1107 96.3594 40.0299C96.1659 39.6343 95.9897 39.2284 95.773 38.8453C95.6582 38.6429 95.6606 38.4758 95.7428 38.2711C96.1496 37.257 96.6353 36.2906 97.399 35.48C97.4025 35.4765 97.399 35.4652 97.399 35.4584C96.6422 35.6391 95.9631 36.1917 94.9849 37.4298C94.9374 37.3775 94.8898 37.332 94.8504 37.2797C94.4147 36.7056 93.9766 36.1337 93.5478 35.555C93.4643 35.4436 93.3925 35.3117 93.3589 35.1787C92.5615 32.0589 91.7688 28.9381 90.976 25.8183C90.4104 23.59 89.8449 21.3604 89.2793 19.1309C89.2619 19.0638 89.2387 18.9979 89.2213 18.9433C89.1935 18.9331 89.1831 18.9263 89.1773 18.9285C89.168 18.9308 89.1576 18.9399 89.1541 18.9479C89.1321 19.0047 89.1078 19.0604 89.0927 19.1195C87.7158 24.6291 86.3402 30.1387 84.9563 35.6846C85.858 35.3822 86.7157 35.0729 87.6556 35.1105C87.622 35.1252 87.5895 35.1423 87.5548 35.1548C86.6067 35.4868 85.8858 36.103 85.2971 36.8841C84.6052 37.8027 84.1868 38.843 83.8924 39.9379C83.8739 40.0072 83.8553 40.0766 83.8368 40.1448C83.8287 40.1743 83.8182 40.2028 83.8032 40.2505H81.6544C81.7506 40.1607 81.8109 40.097 81.8793 40.0424C82.2131 39.7764 82.5781 39.5593 82.9791 39.4069C83.1043 39.3592 83.1796 39.2989 83.2179 39.1591C83.401 38.4883 83.6027 37.8232 83.7927 37.1535C83.8194 37.0614 83.8194 36.9614 83.8009 36.8488C82.8308 37.6197 81.9569 38.4678 81.2708 39.5161C81.1063 39.3262 80.9614 39.1454 80.8015 38.9783C80.6392 38.8077 80.4468 38.677 80.1455 38.5963C80.2324 38.7236 80.288 38.7918 80.3298 38.8669C80.5245 39.2148 80.7284 39.5593 80.9034 39.9174C81.0089 40.1334 80.9034 40.2619 80.6531 40.2687C80.4653 40.2732 80.2788 40.2687 80.0667 40.2687C80.0261 40.0947 79.9879 39.9276 79.9485 39.7616C79.8059 39.1613 79.5984 38.586 79.2716 38.0562C78.9633 37.5571 78.5658 37.1467 78.042 36.8602C77.9968 36.8352 77.9504 36.8124 77.9017 36.7942C77.8855 36.7886 77.8635 36.7988 77.8148 36.8056C78.7084 37.7902 79.3041 38.893 79.3829 40.2414C79.2994 40.2516 79.2299 40.2641 79.1603 40.2676C79.0885 40.2721 79.0155 40.2676 78.9239 40.2676C78.6805 39.6661 78.356 39.1284 77.758 38.7589C77.6699 38.9294 77.5865 39.0908 77.4972 39.2648C77.6861 39.5729 77.9191 39.8639 78.013 40.2494H74.9035C74.8965 40.1596 74.8965 40.0618 74.8814 39.9663C74.8189 39.5638 74.7713 39.1568 74.6809 38.76C74.5824 38.3291 74.3715 37.9437 74.0934 37.5719C74.2313 37.6526 74.3738 37.7265 74.5048 37.8163C75.1909 38.2859 75.7205 38.901 76.1899 39.5718C76.2456 39.6513 76.3186 39.7184 76.3835 39.7912C76.3893 39.8162 76.3951 39.8412 76.3869 39.806C76.4124 39.8287 76.3951 39.8128 76.3777 39.7969C76.3696 39.6877 76.3754 39.5752 76.3499 39.4706C76.0705 38.3098 75.4969 37.3127 74.6184 36.485C74.6624 36.4634 74.7064 36.4407 74.7505 36.4191C75.1005 36.6533 75.4517 36.8875 75.8225 37.1353C73.2786 27.717 70.7381 18.3135 68.1919 8.88377H75.2523C76.9363 15.9805 78.6249 23.0954 80.3147 30.2103C80.339 30.2126 80.3645 30.2137 80.3889 30.216C80.8629 28.4492 81.3149 26.6767 81.7761 24.9065C82.2397 23.1261 82.7022 21.3445 83.1669 19.5641C83.6305 17.7837 84.0976 16.0032 84.5611 14.2228C85.0247 12.4435 85.4872 10.6631 85.9519 8.87695H92.565C94.3869 16.076 96.2088 23.2739 98.0318 30.4729C98.0596 30.4729 98.0874 30.4729 98.1153 30.4729C99.8607 23.2796 101.607 16.0851 103.355 8.88036H110.275C110.2 9.16573 110.129 9.44087 110.054 9.71601C108.267 16.2238 106.48 22.7304 104.694 29.2382C104.128 31.2983 103.56 33.3584 103.003 35.422C102.941 35.6482 102.829 35.7767 102.573 35.8108C101.993 35.0536 101.247 34.4772 100.356 34.0395C100.668 33.5244 101.043 33.0822 101.453 32.6638C101.439 32.6422 101.425 32.6217 101.411 32.6001C101.32 32.6251 101.225 32.641 101.138 32.6774C100.652 32.8787 100.214 33.1561 99.8491 33.5278C99.6903 33.6893 99.5582 33.7268 99.3368 33.6518C98.4757 33.3573 97.581 33.2209 96.6723 33.1618C96.5495 33.1379 96.4255 33.114 96.3026 33.089C96.298 33.114 96.2934 33.139 96.2887 33.164C96.4162 33.1845 96.5437 33.2061 96.6723 33.2266H96.6689Z" fill="#255646"/>
<path id="Vector_2" d="M48.1799 40.1595C48.1695 39.4751 48.0942 38.7986 47.9412 38.1313C47.9412 38.1176 47.9365 38.1051 47.9307 38.0926C47.845 37.8641 47.7662 37.6333 47.6711 37.4093C46.9989 35.8222 45.7982 34.775 44.1884 34.1497C43.9381 34.052 43.6808 33.9724 43.4258 33.8848C43.3853 33.87 43.3459 33.8564 43.3053 33.8416C43.2613 33.8337 43.2172 33.8257 43.1732 33.8177C43.1349 33.8052 43.0967 33.7916 43.0585 33.7791C43.0133 33.7723 42.9681 33.7654 42.9229 33.7586C42.8823 33.7461 42.8417 33.7336 42.8 33.7211C42.7351 33.712 42.6714 33.7029 42.6076 33.6927C42.5682 33.6813 42.5288 33.6699 42.4894 33.6586C42.4257 33.6506 42.3608 33.6438 42.297 33.6358C42.2367 33.6222 42.1753 33.6097 42.1151 33.596C42.0513 33.5904 41.9864 33.5847 41.9227 33.579C41.8381 33.5653 41.7523 33.5517 41.6677 33.5381C41.5645 33.5312 41.4614 33.5244 41.3582 33.5176C41.1172 33.5028 40.8773 33.4869 40.6362 33.4721C40.0266 32.4534 39.5804 31.3665 39.2362 30.2376C38.7506 28.6424 38.5049 27.0098 38.4574 25.3465C38.3716 22.3518 38.8398 19.4583 40.117 16.7195C41.5669 13.6111 43.7944 11.2179 46.9398 9.68529C48.5717 8.89058 50.2974 8.41762 52.1077 8.23116C54.3167 8.00264 56.5094 8.08222 58.6581 8.65182C62.7864 9.74555 65.8426 12.1763 67.8522 15.869C68.7829 17.5779 69.3647 19.4038 69.6811 21.3149C69.9349 22.8464 70.0033 24.3869 69.9129 25.9309C69.7309 29.0051 68.9022 31.8884 67.1708 34.484C65.1808 37.4662 62.4039 39.4046 58.9166 40.3801C58.8876 40.3881 58.8563 40.3915 58.7822 40.404C58.9351 39.6377 59.2353 38.9589 59.7464 38.3041C59.6154 38.3393 59.5401 38.3541 59.4683 38.3802C58.672 38.6724 58.0555 39.1988 57.5328 39.8378C57.3242 40.0925 57.1376 40.3653 56.9591 40.6416C56.8826 40.7598 56.7945 40.8133 56.6612 40.828C55.3725 40.9713 54.0825 41.01 52.7868 40.919C51.7229 40.844 50.6763 40.6837 49.646 40.4131C49.5463 40.3869 49.4478 40.3562 49.3343 40.3232C49.6877 39.1329 50.3681 38.1767 51.3149 37.3911C51.403 37.3274 51.4899 37.2638 51.578 37.199C51.5664 37.1831 51.556 37.1683 51.5444 37.1524C51.4471 37.2126 51.3497 37.274 51.2523 37.3343C50.1351 37.9471 49.2624 38.8168 48.5253 39.8298C48.4418 39.9447 48.3549 40.0572 48.2692 40.1709C48.239 40.1675 48.2089 40.1641 48.1799 40.1607V40.1595ZM45.5039 24.4176C45.5039 25.708 45.6059 26.7642 45.8122 27.8102C46.1054 29.3007 46.6292 30.7026 47.5193 31.9555C48.4917 33.3232 49.7781 34.2953 51.4018 34.808C52.5886 35.1832 53.8148 35.2548 55.0526 35.1639C55.8673 35.1036 56.6647 34.9604 57.4262 34.6602C59.1484 33.9803 60.4302 32.8161 61.34 31.2415C62.2683 29.6338 62.674 27.8818 62.8374 26.065C62.9846 24.4256 62.8687 22.7986 62.5337 21.1853C62.2556 19.8426 61.7885 18.5704 61.0271 17.4141C59.9782 15.8236 58.5446 14.7287 56.6682 14.2296C55.4559 13.9067 54.2193 13.8817 52.9746 14.0045C51.3335 14.1671 49.9033 14.7901 48.6841 15.8781C47.6352 16.8138 46.9306 17.9746 46.4334 19.2616C45.7635 20.9943 45.5375 22.802 45.505 24.4176H45.5039Z" fill="#255646"/>
<path id="Vector_3" d="M-0.976565 42.19C-0.645101 42.0877 -0.314795 41.9797 0.0189869 41.8853C2.95929 41.0577 5.92508 40.3255 8.91174 39.6729C8.94187 39.6661 8.97085 39.6558 9.03343 39.6376C8.9581 38.8077 8.66372 38.0687 8.13755 37.3888C8.27547 37.465 8.42034 37.5298 8.55014 37.6185C9.28029 38.1153 9.84702 38.7645 10.3442 39.4785C10.4369 39.6126 10.5262 39.7491 10.6699 39.8696C10.6177 39.6331 10.5772 39.3943 10.51 39.1624C10.1437 37.8959 9.41357 36.8601 8.40759 36.0017C8.38441 35.9824 8.36586 35.9585 8.34384 35.9381C8.36934 35.9142 8.39484 35.8892 8.42034 35.8653C9.47036 36.3951 10.2909 37.1819 11.0269 38.1551V8.88598H18.0931C18.1105 9.94674 18.0989 11.0154 18.1012 12.0853C18.1035 13.1699 18.1012 14.2534 18.1012 15.3381V21.8367C18.2217 21.7208 18.3017 21.648 18.377 21.5707C22.3789 17.4118 26.3808 13.2529 30.377 9.08949C30.5323 8.92805 30.6818 8.85642 30.9124 8.85756C33.6151 8.86665 36.319 8.86324 39.0217 8.86324H39.4041C38.5535 9.73981 37.7178 10.5436 36.8961 11.3588C36.0605 12.1888 35.2249 13.0187 34.3881 13.8475C33.5595 14.6695 32.7285 15.4893 31.8987 16.3113C31.0619 17.1401 30.2263 17.97 29.3895 18.7989C28.5609 19.6197 27.7334 20.4406 26.8954 21.2694C30.5044 26.2628 34.1019 31.2403 37.7109 36.2337C36.5206 37.3433 35.8936 38.7429 35.4382 40.2516H31.7515C31.7318 38.6167 32.2858 37.233 33.5108 36.12C33.607 36.0483 33.7043 35.9767 33.8005 35.9062L33.7519 35.8403C33.6139 35.9301 33.476 36.0199 33.3381 36.1097C32.8618 36.3928 32.4388 36.743 32.0714 37.1489C31.7086 37.5491 31.3783 37.9789 31.0283 38.4041C31.0132 38.1437 31.0028 37.8845 30.9808 37.6253C30.8093 35.6197 29.6596 33.8143 27.1133 33.0571C26.856 32.9809 26.6891 32.8536 26.5419 32.6376C25.128 30.5536 23.7048 28.4753 22.2827 26.3958C22.2375 26.3287 22.1865 26.2651 22.1193 26.1741C21.9779 26.3117 21.847 26.4368 21.7183 26.563C20.5883 27.6817 19.463 28.805 18.326 29.9169C18.1557 30.0829 18.0931 30.25 18.0954 30.4797C18.1058 31.5734 18.1 32.6671 18.1 33.7608V34.0917C18.0259 34.0428 17.9957 34.0326 17.9783 34.011C17.1508 32.9855 16.0405 32.3886 14.7947 32.0043C14.1074 31.7928 13.4004 31.6678 12.6795 31.6246C12.4362 31.5393 12.1905 31.5689 11.9401 31.6211C12.0595 31.6428 12.1777 31.6632 12.2971 31.6848C13.6403 31.9963 14.8966 32.4943 15.9814 33.3504C16.8982 34.0746 17.5147 34.9842 17.7164 36.137C17.8624 36.9693 17.7767 37.7913 17.5321 38.5917C17.3803 39.0885 17.1671 39.5671 16.977 40.0537C16.948 40.1276 16.8982 40.1947 16.8541 40.2709H16.4079C14.8955 40.2709 13.383 40.2743 11.8694 40.2698C11.276 40.2675 10.6826 40.247 10.0892 40.2357C8.94767 40.2152 7.82347 40.3687 6.70275 40.5631C4.47753 40.9496 2.28708 41.4897 0.0954787 42.0206C-0.223237 42.0979 -0.541953 42.1741 -0.860669 42.2514C-0.901233 42.231 -0.940637 42.2116 -0.981201 42.1912L-0.976565 42.19Z" fill="#255646"/>
<path id="Vector_4" d="M68.2266 43.0678C68.6044 43.7659 68.9857 44.4685 69.3879 45.2132C69.79 44.4742 70.1737 43.7682 70.5584 43.0621H72.9227V48.4773H70.5666V45.743C70.5469 45.7362 70.526 45.7294 70.5063 45.7214C70.1424 46.3877 69.7785 47.0539 69.3879 47.7679C69.0054 47.0641 68.6427 46.3979 68.2811 45.7316L68.2324 45.7442V48.4751H65.8623V44.2264H67.7004C67.7085 44.207 67.7155 44.1877 67.7236 44.1684C67.1325 43.7943 66.5079 43.4703 65.8658 43.0678H68.2266Z" fill="#255646"/>
<path id="Vector_5" d="M94.5721 43.0677V48.4807C94.4748 48.4864 94.3937 48.4943 94.3137 48.4954C93.6983 48.4954 93.0817 48.4875 92.4663 48.5011C92.2704 48.5057 92.1719 48.4352 92.0838 48.2692C91.6817 47.5075 91.2679 46.7514 90.8565 45.9942C90.809 45.9067 90.758 45.8203 90.6595 45.7384V48.4795H88.3207C88.2558 48.2385 88.2303 45.1381 88.2871 44.2331H90.1484C90.1565 44.2126 90.1634 44.191 90.1715 44.1706C89.5631 43.8147 88.9535 43.46 88.2917 43.0734H90.6606C90.9005 43.5157 91.1509 43.9739 91.3989 44.4332C91.6469 44.8925 91.8949 45.3518 92.1742 45.8077C92.2148 45.511 92.2067 45.2165 92.2078 44.9221C92.209 44.6151 92.2078 44.3081 92.2078 44.0012V43.0689H94.5721V43.0677Z" fill="#255646"/>
<path id="Vector_6" d="M61.4502 43.0495C61.9404 43.0495 62.4306 43.0495 62.9209 43.0495C63.0252 43.0495 63.1295 43.0495 63.2338 43.0541C64.0752 43.0973 64.5759 43.5702 64.5956 44.3922C64.6165 45.312 64.6153 46.2318 64.5956 47.1516C64.5817 47.77 64.285 48.3658 63.3822 48.4613C63.2373 48.4761 63.0913 48.492 62.9464 48.4931C61.9555 48.4954 60.9646 48.4965 59.9736 48.4931C59.8183 48.4931 59.6619 48.4772 59.5066 48.4568C58.7973 48.3624 58.3882 47.9383 58.336 47.238C58.3221 47.0549 58.3233 46.8707 58.3233 46.6866C58.3221 46.0533 58.3233 45.4189 58.3233 44.7856C58.3233 44.6628 58.3233 44.54 58.3291 44.4172C58.365 43.56 58.8506 43.0791 59.7291 43.0552C60.3028 43.0393 60.8765 43.0518 61.4502 43.0518V43.0484V43.0495ZM60.7061 45.7634C60.7061 45.7634 60.7096 45.7634 60.7119 45.7634C60.7119 46.0794 60.6968 46.3966 60.7154 46.7116C60.7362 47.0629 60.9599 47.2641 61.3169 47.2948C61.3887 47.3005 61.4629 47.3028 61.5348 47.2994C61.9729 47.2823 62.2104 47.0595 62.2186 46.6297C62.229 46.059 62.2278 45.4871 62.2186 44.9164C62.2116 44.4695 61.9497 44.2331 61.4826 44.224C60.9993 44.2149 60.7246 44.4491 60.7073 44.9061C60.6957 45.1915 60.7049 45.4769 60.7049 45.7634H60.7061Z" fill="#255646"/>
<path id="Vector_7" d="M20.6324 2.63851V0.538605H22.9944V5.93902H20.6336V3.84025H19.0863V5.94015H16.7499C16.678 5.71959 16.6479 2.74197 16.7116 1.6869C17.0141 1.67099 17.3224 1.68236 17.6295 1.68008C17.9424 1.67781 18.2554 1.68008 18.581 1.65621C18.0004 1.26624 17.3792 0.938804 16.7278 0.534058H19.0678V2.63965H20.6301L20.6324 2.63851Z" fill="#255646"/>
<path id="Vector_8" d="M85.4733 43.0712C86.0679 44.8584 86.6636 46.6514 87.2697 48.4727H84.8023C84.7107 48.126 84.618 47.7746 84.5253 47.4256H83.0395C82.9456 47.7792 82.8529 48.1316 82.7602 48.4818H80.2927C80.7749 47.0345 81.2489 45.6133 81.7275 44.1763H83.3304C82.9676 43.7738 82.5481 43.4509 82.1158 43.0712H85.4733ZM84.2321 46.2728C84.0883 45.6736 83.9493 45.0938 83.8102 44.5151C83.5993 45.0938 83.437 45.6702 83.313 46.2728H84.2332H84.2321Z" fill="#255646"/>
<path id="Vector_9" d="M76.0611 44.1615C75.455 43.8079 74.85 43.4554 74.2439 43.1019C74.2462 43.0837 74.2485 43.0666 74.252 43.0484H74.4849C75.7899 43.0484 77.0938 43.0461 78.3988 43.0507C78.5854 43.0507 78.7754 43.0643 78.9574 43.1007C79.5705 43.2201 79.9448 43.5987 79.9981 44.2024C80.0341 44.6083 80.0352 45.0221 79.9981 45.4269C79.939 46.0681 79.5288 46.474 78.8705 46.5456C78.437 46.5922 77.9966 46.582 77.5585 46.5911C77.2363 46.5968 76.9153 46.5922 76.5595 46.5922V48.4784H74.2021V44.2251H76.0542C76.0565 44.2035 76.0588 44.1831 76.0611 44.1615ZM76.5711 45.4041C76.7913 45.395 76.9987 45.4053 77.1992 45.3723C77.4936 45.3234 77.6373 45.129 77.642 44.8311C77.6466 44.5253 77.5156 44.3366 77.2201 44.2774C77.0126 44.2354 76.7971 44.2342 76.5711 44.2126V45.4041Z" fill="#255646"/>
<path id="Vector_10" d="M29.3328 5.94132H24.2693V1.68352H26.1109C26.1178 1.66419 26.126 1.64373 26.1329 1.6244C25.5326 1.27422 24.9322 0.924049 24.3226 0.569327C24.5567 0.498838 28.474 0.472689 29.349 0.534083C29.3572 0.901311 29.3502 1.27309 29.3525 1.68011H26.6544V2.6465H28.9492V3.81867H26.6533V4.77483H29.3328V5.94132Z" fill="#255646"/>
<path id="Vector_11" d="M57.0714 43.0496V44.2081C56.9834 44.2138 56.9034 44.2241 56.8234 44.2241C56.2915 44.2252 55.7595 44.2218 55.2275 44.2263C55.0931 44.2275 54.9563 44.2411 54.8265 44.2718C54.5785 44.3287 54.4336 44.4935 54.3884 44.7368C54.3664 44.8573 54.3583 44.9801 54.3571 45.1029C54.3537 45.5429 54.3548 45.9817 54.3571 46.4217C54.3571 46.5036 54.3606 46.5855 54.3687 46.6662C54.4162 47.0937 54.6225 47.2903 55.0583 47.2983C55.5381 47.3074 56.0179 47.3006 56.4977 47.3006C56.6832 47.3006 56.8686 47.3006 57.068 47.3006V48.4739C56.9834 48.4807 56.9034 48.4944 56.8234 48.4944C55.7491 48.4955 54.6747 48.4978 53.6003 48.4932C53.4137 48.4932 53.2248 48.4739 53.0406 48.4421C52.4773 48.342 52.1029 47.9532 52.0149 47.3881C51.9986 47.2869 51.9859 47.1846 51.9859 47.0834C51.9836 46.2046 51.9859 45.3257 51.9859 44.4469C51.9859 44.406 51.9917 44.365 51.9963 44.3252C52.074 43.5237 52.5341 43.0894 53.3604 43.0564C53.7348 43.0416 54.1114 43.0507 54.4869 43.0507C55.238 43.0507 55.989 43.0507 56.74 43.0507C56.842 43.0507 56.9451 43.0507 57.0738 43.0507L57.0714 43.0496Z" fill="#255646"/>
<path id="Vector_12" d="M95.6825 43.053H98.0584C98.3841 43.5942 98.7167 44.1456 99.0748 44.739C99.4248 44.1615 99.7552 43.6158 100.09 43.0609H102.558C102.491 43.161 102.445 43.236 102.394 43.3088C101.751 44.2388 101.11 45.1711 100.459 46.0943C100.333 46.2728 100.28 46.4478 100.285 46.6616C100.296 47.2539 100.288 47.8463 100.288 48.4659H97.9228C97.917 48.3806 97.9066 48.2919 97.9066 48.2033C97.9054 47.6826 97.8996 47.1607 97.9089 46.64C97.9124 46.4467 97.8649 46.2898 97.749 46.1295C97.3028 45.5144 96.8693 44.8903 96.4057 44.232H97.6319C97.6389 44.2092 97.647 44.1865 97.6539 44.1638C96.9899 43.809 96.3258 43.4543 95.6628 43.1007C95.6686 43.0848 95.6756 43.0689 95.6814 43.053H95.6825Z" fill="#255646"/>
<path id="Vector_13" d="M13.4759 5.94479H11.0872V1.68699H9.08105V0.538696H15.4716C15.4774 0.90024 15.4786 1.27202 15.4681 1.68017H13.477V5.94479H13.4759Z" fill="#255646"/>
<path id="Vector_14" d="M40.6375 33.472C40.8785 33.4868 41.1184 33.5027 41.3595 33.5175C41.2888 33.5243 41.2181 33.53 41.1393 33.538C41.7049 33.7244 42.2658 33.8825 42.807 34.0917C43.8872 34.5089 44.8515 35.1047 45.599 35.9949C46.3581 36.8987 46.707 37.9459 46.7151 39.1089C46.7151 39.1487 46.7058 39.1885 46.6988 39.2283C46.6977 39.2363 46.6849 39.242 46.6641 39.259C46.6073 39.234 46.5412 39.2101 46.4798 39.1783C44.0124 37.9083 42.1105 36.0711 40.7476 33.6926C40.707 33.6221 40.6757 33.5459 40.6398 33.472H40.6375Z" fill="#255646"/>
<path id="Vector_15" d="M104.062 36.1734C103.163 36.9784 102.547 37.9561 102.212 39.1033C102.155 39.2989 102.114 39.5001 102.067 39.6991C102.062 39.7252 102.072 39.7548 102.08 39.8332C102.728 38.8691 103.428 38.0062 104.464 37.465C103.882 38.237 103.712 39.1169 103.67 40.0606C104.089 40.1595 104.491 40.2539 104.894 40.3482C107.415 40.9372 109.915 41.6023 112.397 42.3322C112.437 42.3436 112.475 42.3606 112.514 42.3754C112.474 42.3959 112.434 42.4152 112.394 42.4356C111.048 42.1196 109.706 41.7921 108.358 41.4886C106.593 41.0918 104.814 40.7564 103.018 40.5233C102.315 40.4324 101.612 40.3573 100.908 40.2732C100.828 40.2641 100.751 40.2425 100.656 40.2232C100.762 39.7741 100.939 39.3739 101.141 38.9851C101.759 37.7992 102.656 36.8681 103.821 36.1837C103.874 36.153 103.932 36.1314 103.989 36.1052C104.013 36.128 104.038 36.1507 104.062 36.1734Z" fill="#255646"/>
<path id="Vector_16" d="M100.024 34.5874C100.726 35.065 101.287 35.6346 101.712 36.3645C100.424 37.3627 99.7923 38.7065 99.5245 40.2539H98.9312C98.7956 38.2779 99.0865 36.3929 100.024 34.5863V34.5874Z" fill="#255646"/>
<path id="Vector_17" d="M36.8394 40.255C37.1361 39.0532 37.5116 37.9152 38.1304 36.8101C38.9661 37.9663 39.7797 39.0919 40.6199 40.255H36.8394Z" fill="#255646"/>
<path id="Vector_18" d="M21.2016 36.2393C20.2663 37.1045 19.6532 38.1516 19.353 39.3761C19.331 39.4648 19.3136 39.5557 19.2986 39.6467C19.2939 39.6751 19.302 39.7047 19.3067 39.7468C19.6787 39.2965 20.0264 38.8429 20.41 38.42C20.789 38.0027 21.2306 37.6503 21.759 37.416C21.0486 38.2164 20.9315 39.1942 20.8632 40.2311C19.8734 40.2425 18.8813 40.2345 17.8499 40.2368C18.4131 38.4563 19.4562 37.0988 21.0706 36.1757C21.1147 36.1973 21.1587 36.2189 21.2016 36.2405V36.2393Z" fill="#255646"/>
<path id="Vector_19" d="M29.75 37.3137C28.882 36.0438 28.0348 34.8045 27.1748 33.5482C28.5459 33.9632 29.8984 35.9267 29.75 37.3137Z" fill="#255646"/>
<path id="Vector_20" d="M94.3626 38.0073C95.1797 38.478 95.8866 39.3989 96.0501 40.2357C95.7684 40.2357 95.4926 40.2357 95.2179 40.2357C94.9432 40.2357 94.6778 40.2357 94.38 40.2357C94.3383 39.7184 94.2815 39.2136 93.9326 38.7213C94.0589 38.7645 94.1354 38.7691 94.1772 38.81C94.4576 39.0806 94.7323 39.358 95.0058 39.6365C95.0754 39.707 95.131 39.7912 95.2144 39.856C95.1066 39.1602 94.7717 38.5815 94.2849 38.0778C94.3116 38.0539 94.3371 38.0312 94.3626 38.0073Z" fill="#255646"/>
<path id="Vector_21" d="M12.3006 31.6848C12.1812 31.6632 12.063 31.6428 11.9436 31.6212C12.1939 31.5689 12.4396 31.5404 12.683 31.6246C12.5555 31.645 12.4281 31.6644 12.3006 31.6848Z" fill="#255646"/>
<path id="Vector_22" d="M74.7459 36.4202C74.7018 36.4418 74.6578 36.4645 74.6137 36.4861C74.4944 36.3963 74.375 36.3065 74.2556 36.2167C74.455 36.2189 74.6068 36.3054 74.7459 36.4202Z" fill="#255646"/>
<path id="Vector_23" d="M21.2015 36.2394C21.1575 36.2178 21.1134 36.1962 21.0706 36.1746C21.2177 36.0893 21.3661 36.0052 21.5133 35.9199C21.526 35.9381 21.5388 35.9574 21.5515 35.9756C21.4356 36.0643 21.3186 36.1519 21.2027 36.2405L21.2015 36.2394Z" fill="#255646"/>
<path id="Vector_24" d="M33.3428 36.1098C33.4807 36.02 33.6186 35.9301 33.7565 35.8403L33.8052 35.9063C33.709 35.9779 33.6117 36.0495 33.5155 36.12C33.4587 36.1166 33.4007 36.1132 33.3439 36.1086L33.3428 36.1098Z" fill="#255646"/>
<path id="Vector_25" d="M96.6688 33.2266C96.5413 33.2061 96.4138 33.1845 96.2852 33.164C96.2898 33.139 96.2944 33.114 96.2991 33.089C96.4219 33.1129 96.5459 33.1367 96.6688 33.1618C96.6688 33.1834 96.6688 33.205 96.6688 33.2266Z" fill="#255646"/>
<path id="Vector_26" d="M8.42269 35.863C8.3972 35.8869 8.3717 35.9119 8.3462 35.9358C8.25117 35.8653 8.15729 35.7937 8.06226 35.7232C8.07269 35.7073 8.08196 35.6902 8.09239 35.6743C8.20249 35.7368 8.31259 35.8005 8.42269 35.863Z" fill="#255646"/>
<path id="Vector_27" d="M94.3625 38.0073C94.337 38.0312 94.3103 38.0539 94.2848 38.0778C94.1956 38.005 94.1063 37.9334 94.0171 37.8606C94.0287 37.8447 94.0391 37.8288 94.0507 37.8129C94.155 37.8777 94.2593 37.9425 94.3636 38.0073H94.3625Z" fill="#255646"/>
<path id="Vector_28" d="M51.2524 37.3332C51.3498 37.2729 51.4472 37.2115 51.5445 37.1512C51.5561 37.1672 51.5665 37.1819 51.5781 37.1979C51.49 37.2615 51.4031 37.3252 51.315 37.39C51.2942 37.3718 51.2733 37.3525 51.2524 37.3343V37.3332Z" fill="#255646"/>
<path id="Vector_29" d="M104.062 36.1735C104.037 36.1507 104.013 36.128 103.989 36.1053C104.047 36.0677 104.104 36.0268 104.164 35.995C104.186 35.9836 104.218 35.9927 104.304 35.9927C104.196 36.0723 104.129 36.1223 104.062 36.1723V36.1735Z" fill="#255646"/>
<path id="Vector_30" d="M48.18 40.1595C48.2101 40.163 48.2402 40.1664 48.2692 40.1698C48.2414 40.213 48.2147 40.2562 48.1869 40.2994C48.1742 40.2937 48.1614 40.2892 48.1487 40.2835C48.1591 40.2425 48.1695 40.2016 48.18 40.1595Z" fill="#255646"/>
<path id="Vector_31" d="M43.0596 33.7791C43.0978 33.7927 43.1361 33.8052 43.1743 33.8177C43.1361 33.8041 43.0978 33.7916 43.0596 33.7791Z" fill="#255646"/>
<path id="Vector_32" d="M47.9319 38.0925C47.9377 38.105 47.9412 38.1175 47.9424 38.1312L47.9238 38.1141L47.9319 38.0925Z" fill="#255646"/>
<path id="Vector_33" d="M76.373 39.7979C76.3904 39.8138 76.4078 39.8298 76.3823 39.807C76.3904 39.8423 76.3846 39.8172 76.3788 39.7922L76.373 39.7991V39.7979Z" fill="#255646"/>
</g>
</g>
</g>
<defs>
<clipPath id="clip0_43_520">
<rect width="117" height="48" fill="white" transform="translate(-3 0.5)"/>
</clipPath>
</defs>
</svg>
